<svg xmlns="http://www.w3.org/2000/svg" width="800" height="360" viewBox="0 0 800 360" role="img" aria-labelledby="t"><title id="t">Panda coding</title>
<rect width="800" height="360" rx="24" fill="#111827"/><rect x="32" y="30" width="736" height="300" rx="16" fill="#1d2235" stroke="#424664"/><circle cx="60" cy="54" r="7" fill="#fb7185"/><circle cx="82" cy="54" r="7" fill="#fbbf24"/><circle cx="104" cy="54" r="7" fill="#34d399"/>
<text x="55" y="105" fill="#a78bfa" font-family="monospace" font-size="20">ali@future-lab:~$</text><text x="55" y="142" fill="#e5e7eb" font-family="monospace" font-size="20">def build_better_futures():</text><text x="82" y="180" fill="#67e8f9" font-family="monospace" font-size="20">observe(signals)</text><text x="82" y="217" fill="#86efac" font-family="monospace" font-size="20">automate(systems)</text><text x="82" y="254" fill="#f9a8d4" font-family="monospace" font-size="20">return impact</text><text x="55" y="301" fill="#a78bfa" font-family="monospace" font-size="20">&gt; _</text>
<g transform="translate(540 55)"><circle cx="34" cy="44" r="29" fill="#10131e"/><circle cx="178" cy="44" r="29" fill="#10131e"/><ellipse cx="105" cy="125" rx="100" ry="103" fill="#f8fafc"/><ellipse cx="66" cy="123" rx="26" ry="33" fill="#24263a" transform="rotate(18 66 123)"/><ellipse cx="146" cy="123" rx="26" ry="33" fill="#24263a" transform="rotate(-18 146 123)"/><circle cx="70" cy="124" r="7" fill="#fff"/><circle cx="143" cy="124" r="7" fill="#fff"/><ellipse cx="106" cy="165" rx="16" ry="10" fill="#24263a"/><path d="M94 183q12 11 24 0" fill="none" stroke="#24263a" stroke-width="4" stroke-linecap="round"/><rect x="-18" y="225" width="248" height="60" rx="10" fill="#36315d" stroke="#8b5cf6" stroke-width="3"/><text x="38" y="264" fill="#67e8f9" font-family="monospace" font-size="22">&lt;/future&gt;</text></g>
</svg>
